<?xml version="1.0" encoding="UTF-8" standalone="no"?><svg xmlns="http://www.w3.org/2000/svg" xmlns:xlink="http://www.w3.org/1999/xlink" clip-rule="evenodd" stroke-miterlimit="4.00" viewBox="0 0 1024 768"><desc>SVG generated by Keynote</desc><defs></defs><g transform="matrix(1.00, 0.00, -0.00, -1.00, 0.0, 768.0)"><path d="M 0.0 768.0 L 1024.0 768.0 L 1024.0 0.0 L 0.0 0.0 Z M 0.0 768.0 " fill="#000000"></path><text xml:space="preserve" font-family="Helvetica-Light" font-size="80.0" fill="#FEFFFF" transform="matrix(1.00, 0.00, -0.00, -1.00, 243.0, 633.0)">I</text><text xml:space="preserve" font-family="Helvetica-Light" font-size="80.0" fill="#FEFFFF" transform="matrix(1.00, 0.00, -0.00, -1.00, 265.2, 633.0)">n</text><text xml:space="preserve" font-family="Helvetica-Light" font-size="80.0" fill="#FEFFFF" transform="matrix(1.00, 0.00, -0.00, -1.00, 309.7, 633.0)">s</text><text xml:space="preserve" font-family="Helvetica-Light" font-size="80.0" fill="#FEFFFF" transform="matrix(1.00, 0.00, -0.00, -1.00, 349.7, 633.0)">t</text><text xml:space="preserve" font-family="Helvetica-Light" font-size="80.0" fill="#FEFFFF" transform="matrix(1.00, 0.00, -0.00, -1.00, 372.0, 633.0)">a</text><text xml:space="preserve" font-family="Helvetica-Light" font-size="80.0" fill="#FEFFFF" transform="matrix(1.00, 0.00, -0.00, -1.00, 416.4, 633.0)">l</text><text xml:space="preserve" font-family="Helvetica-Light" font-size="80.0" fill="#FEFFFF" transform="matrix(1.00, 0.00, -0.00, -1.00, 434.2, 633.0)">a</text><text xml:space="preserve" font-family="Helvetica-Light" font-size="80.0" fill="#FEFFFF" transform="matrix(1.00, 0.00, -0.00, -1.00, 478.7, 633.0)">n</text><text xml:space="preserve" font-family="Helvetica-Light" font-size="80.0" fill="#FEFFFF" transform="matrix(1.00, 0.00, -0.00, -1.00, 523.2, 633.0)">d</text><text xml:space="preserve" font-family="Helvetica-Light" font-size="80.0" fill="#FEFFFF" transform="matrix(1.00, 0.00, -0.00, -1.00, 572.0, 633.0)">o</text><text xml:space="preserve" font-family="Helvetica-Light" font-size="80.0" fill="#FEFFFF" transform="matrix(1.00, 0.00, -0.00, -1.00, 616.5, 633.0)"> </text><text xml:space="preserve" font-family="Helvetica-Light" font-size="80.0" fill="#FEFFFF" transform="matrix(1.00, 0.00, -0.00, -1.00, 638.8, 633.0)">P</text><text xml:space="preserve" font-family="Helvetica-Light" font-size="80.0" fill="#FEFFFF" transform="matrix(1.00, 0.00, -0.00, -1.00, 687.6, 633.0)">o</text><text xml:space="preserve" font-family="Helvetica-Light" font-size="80.0" fill="#FEFFFF" transform="matrix(1.00, 0.00, -0.00, -1.00, 732.1, 633.0)">d</text><text xml:space="preserve" font-family="Helvetica-Light" font-size="28.0" fill="#FEFFFF" transform="matrix(1.00, 0.00, -0.00, -1.00, 81.0, 532.0)">E</text><text xml:space="preserve" font-family="Helvetica-Light" font-size="28.0" fill="#FEFFFF" transform="matrix(1.00, 0.00, -0.00, -1.00, 98.1, 532.0)">x</text><text xml:space="preserve" font-family="Helvetica-Light" font-size="28.0" fill="#FEFFFF" transform="matrix(1.00, 0.00, -0.00, -1.00, 112.1, 532.0)">e</text><text xml:space="preserve" font-family="Helvetica-Light" font-size="28.0" fill="#FEFFFF" transform="matrix(1.00, 0.00, -0.00, -1.00, 127.7, 532.0)">m</text><text xml:space="preserve" font-family="Helvetica-Light" font-size="28.0" fill="#FEFFFF" transform="matrix(1.00, 0.00, -0.00, -1.00, 151.0, 532.0)">p</text><text xml:space="preserve" font-family="Helvetica-Light" font-size="28.0" fill="#FEFFFF" transform="matrix(1.00, 0.00, -0.00, -1.00, 168.1, 532.0)">l</text><text xml:space="preserve" font-family="Helvetica-Light" font-size="28.0" fill="#FEFFFF" transform="matrix(1.00, 0.00, -0.00, -1.00, 174.3, 532.0)">o</text><text xml:space="preserve" font-family="Helvetica-Light" font-size="28.0" fill="#FEFFFF" transform="matrix(1.00, 0.00, -0.00, -1.00, 189.9, 532.0)"> </text><text xml:space="preserve" font-family="Helvetica-Light" font-size="28.0" fill="#FEFFFF" transform="matrix(1.00, 0.00, -0.00, -1.00, 197.7, 532.0)">d</text><text xml:space="preserve" font-family="Helvetica-Light" font-size="28.0" fill="#FEFFFF" transform="matrix(1.00, 0.00, -0.00, -1.00, 214.8, 532.0)">e</text><text xml:space="preserve" font-family="Helvetica-Light" font-size="28.0" fill="#FEFFFF" transform="matrix(1.00, 0.00, -0.00, -1.00, 230.4, 532.0)"> </text><text xml:space="preserve" font-family="Helvetica-Light" font-size="28.0" fill="#FEFFFF" transform="matrix(1.00, 0.00, -0.00, -1.00, 238.1, 532.0)">i</text><text xml:space="preserve" font-family="Helvetica-Light" font-size="28.0" fill="#FEFFFF" transform="matrix(1.00, 0.00, -0.00, -1.00, 244.4, 532.0)">n</text><text xml:space="preserve" font-family="Helvetica-Light" font-size="28.0" fill="#FEFFFF" transform="matrix(1.00, 0.00, -0.00, -1.00, 259.9, 532.0)">t</text><text xml:space="preserve" font-family="Helvetica-Light" font-size="28.0" fill="#FEFFFF" transform="matrix(1.00, 0.00, -0.00, -1.00, 267.7, 532.0)">e</text><text xml:space="preserve" font-family="Helvetica-Light" font-size="28.0" fill="#FEFFFF" transform="matrix(1.00, 0.00, -0.00, -1.00, 283.3, 532.0)">r</text><text xml:space="preserve" font-family="Helvetica-Light" font-size="28.0" fill="#FEFFFF" transform="matrix(1.00, 0.00, -0.00, -1.00, 293.1, 532.0)">f</text><text xml:space="preserve" font-family="Helvetica-Light" font-size="28.0" fill="#FEFFFF" transform="matrix(1.00, 0.00, -0.00, -1.00, 300.9, 532.0)">a</text><text xml:space="preserve" font-family="Helvetica-Light" font-size="28.0" fill="#FEFFFF" transform="matrix(1.00, 0.00, -0.00, -1.00, 316.5, 532.0)">c</text><text xml:space="preserve" font-family="Helvetica-Light" font-size="28.0" fill="#FEFFFF" transform="matrix(1.00, 0.00, -0.00, -1.00, 332.0, 532.0)">e</text><text xml:space="preserve" font-family="Helvetica-Light" font-size="28.0" fill="#FEFFFF" transform="matrix(1.00, 0.00, -0.00, -1.00, 347.6, 532.0)"> </text><text xml:space="preserve" font-family="Helvetica-Bold" font-weight="bold" font-size="28.0" fill="#FEFFFF" transform="matrix(1.00, 0.00, -0.00, -1.00, 81.0, 466.0)">N</text><text xml:space="preserve" font-family="Helvetica-Bold" font-weight="bold" font-size="28.0" fill="#FEFFFF" transform="matrix(1.00, 0.00, -0.00, -1.00, 101.2, 466.0)">V</text><text xml:space="preserve" font-family="Helvetica-Bold" font-weight="bold" font-size="28.0" fill="#FEFFFF" transform="matrix(1.00, 0.00, -0.00, -1.00, 117.8, 466.0)">A</text><text xml:space="preserve" font-family="Helvetica-Bold" font-weight="bold" font-size="28.0" fill="#FEFFFF" transform="matrix(1.00, 0.00, -0.00, -1.00, 138.1, 466.0)">c</text><text xml:space="preserve" font-family="Helvetica-Bold" font-weight="bold" font-size="28.0" fill="#FEFFFF" transform="matrix(1.00, 0.00, -0.00, -1.00, 153.6, 466.0)">t</text><text xml:space="preserve" font-family="Helvetica-Bold" font-weight="bold" font-size="28.0" fill="#FEFFFF" transform="matrix(1.00, 0.00, -0.00, -1.00, 163.0, 466.0)">i</text><text xml:space="preserve" font-family="Helvetica-Bold" font-weight="bold" font-size="28.0" fill="#FEFFFF" transform="matrix(1.00, 0.00, -0.00, -1.00, 170.7, 466.0)">v</text><text xml:space="preserve" font-family="Helvetica-Bold" font-weight="bold" font-size="28.0" fill="#FEFFFF" transform="matrix(1.00, 0.00, -0.00, -1.00, 186.3, 466.0)">i</text><text xml:space="preserve" font-family="Helvetica-Bold" font-weight="bold" font-size="28.0" fill="#FEFFFF" transform="matrix(1.00, 0.00, -0.00, -1.00, 194.1, 466.0)">t</text><text xml:space="preserve" font-family="Helvetica-Bold" font-weight="bold" font-size="28.0" fill="#FEFFFF" transform="matrix(1.00, 0.00, -0.00, -1.00, 203.4, 466.0)">y</text><text xml:space="preserve" font-family="Helvetica-Bold" font-weight="bold" font-size="28.0" fill="#FEFFFF" transform="matrix(1.00, 0.00, -0.00, -1.00, 219.0, 466.0)">I</text><text xml:space="preserve" font-family="Helvetica-Bold" font-weight="bold" font-size="28.0" fill="#FEFFFF" transform="matrix(1.00, 0.00, -0.00, -1.00, 226.8, 466.0)">n</text><text xml:space="preserve" font-family="Helvetica-Bold" font-weight="bold" font-size="28.0" fill="#FEFFFF" transform="matrix(1.00, 0.00, -0.00, -1.00, 243.9, 466.0)">d</text><text xml:space="preserve" font-family="Helvetica-Bold" font-weight="bold" font-size="28.0" fill="#FEFFFF" transform="matrix(1.00, 0.00, -0.00, -1.00, 261.0, 466.0)">i</text><text xml:space="preserve" font-family="Helvetica-Bold" font-weight="bold" font-size="28.0" fill="#FEFFFF" transform="matrix(1.00, 0.00, -0.00, -1.00, 268.7, 466.0)">c</text><text xml:space="preserve" font-family="Helvetica-Bold" font-weight="bold" font-size="28.0" fill="#FEFFFF" transform="matrix(1.00, 0.00, -0.00, -1.00, 284.3, 466.0)">a</text><text xml:space="preserve" font-family="Helvetica-Bold" font-weight="bold" font-size="28.0" fill="#FEFFFF" transform="matrix(1.00, 0.00, -0.00, -1.00, 299.9, 466.0)">t</text><text xml:space="preserve" font-family="Helvetica-Bold" font-weight="bold" font-size="28.0" fill="#FEFFFF" transform="matrix(1.00, 0.00, -0.00, -1.00, 309.2, 466.0)">o</text><text xml:space="preserve" font-family="Helvetica-Bold" font-weight="bold" font-size="28.0" fill="#FEFFFF" transform="matrix(1.00, 0.00, -0.00, -1.00, 326.3, 466.0)">r</text><text xml:space="preserve" font-family="Helvetica-Bold" font-weight="bold" font-size="28.0" fill="#FEFFFF" transform="matrix(1.00, 0.00, -0.00, -1.00, 337.2, 466.0)">V</text><text xml:space="preserve" font-family="Helvetica-Bold" font-weight="bold" font-size="28.0" fill="#FEFFFF" transform="matrix(1.00, 0.00, -0.00, -1.00, 355.4, 466.0)">i</text><text xml:space="preserve" font-family="Helvetica-Bold" font-weight="bold" font-size="28.0" fill="#FEFFFF" transform="matrix(1.00, 0.00, -0.00, -1.00, 363.2, 466.0)">e</text><text xml:space="preserve" font-family="Helvetica-Bold" font-weight="bold" font-size="28.0" fill="#FEFFFF" transform="matrix(1.00, 0.00, -0.00, -1.00, 378.8, 466.0)">w</text><text xml:space="preserve" font-family="Helvetica-Light" font-size="28.0" fill="#FEFFFF" transform="matrix(1.00, 0.00, -0.00, -1.00, 81.0, 400.0)">V</text><text xml:space="preserve" font-family="Helvetica-Light" font-size="28.0" fill="#FEFFFF" transform="matrix(1.00, 0.00, -0.00, -1.00, 96.6, 400.0)">e</text><text xml:space="preserve" font-family="Helvetica-Light" font-size="28.0" fill="#FEFFFF" transform="matrix(1.00, 0.00, -0.00, -1.00, 112.1, 400.0)">r</text><text xml:space="preserve" font-family="Helvetica-Light" font-size="28.0" fill="#FEFFFF" transform="matrix(1.00, 0.00, -0.00, -1.00, 121.5, 400.0)"> </text><text xml:space="preserve" font-family="Helvetica-Light" font-size="28.0" fill="#FEFFFF" transform="matrix(1.00, 0.00, -0.00, -1.00, 129.2, 400.0)">d</text><text xml:space="preserve" font-family="Helvetica-Light" font-size="28.0" fill="#FEFFFF" transform="matrix(1.00, 0.00, -0.00, -1.00, 146.4, 400.0)">o</text><text xml:space="preserve" font-family="Helvetica-Light" font-size="28.0" fill="#FEFFFF" transform="matrix(1.00, 0.00, -0.00, -1.00, 161.9, 400.0)">c</text><text xml:space="preserve" font-family="Helvetica-Light" font-size="28.0" fill="#FEFFFF" transform="matrix(1.00, 0.00, -0.00, -1.00, 177.5, 400.0)">u</text><text xml:space="preserve" font-family="Helvetica-Light" font-size="28.0" fill="#FEFFFF" transform="matrix(1.00, 0.00, -0.00, -1.00, 193.1, 400.0)">m</text><text xml:space="preserve" font-family="Helvetica-Light" font-size="28.0" fill="#FEFFFF" transform="matrix(1.00, 0.00, -0.00, -1.00, 216.4, 400.0)">e</text><text xml:space="preserve" font-family="Helvetica-Light" font-size="28.0" fill="#FEFFFF" transform="matrix(1.00, 0.00, -0.00, -1.00, 231.9, 400.0)">n</text><text xml:space="preserve" font-family="Helvetica-Light" font-size="28.0" fill="#FEFFFF" transform="matrix(1.00, 0.00, -0.00, -1.00, 247.5, 400.0)">t</text><text xml:space="preserve" font-family="Helvetica-Light" font-size="28.0" fill="#FEFFFF" transform="matrix(1.00, 0.00, -0.00, -1.00, 255.3, 400.0)">a</text><text xml:space="preserve" font-family="Helvetica-Light" font-size="28.0" fill="#FEFFFF" transform="matrix(1.00, 0.00, -0.00, -1.00, 270.9, 400.0)">รง</text><text xml:space="preserve" font-family="Helvetica-Light" font-size="28.0" fill="#FEFFFF" transform="matrix(1.00, 0.00, -0.00, -1.00, 286.4, 400.0)">รฃ</text><text xml:space="preserve" font-family="Helvetica-Light" font-size="28.0" fill="#FEFFFF" transform="matrix(1.00, 0.00, -0.00, -1.00, 302.0, 400.0)">o</text><g><clipPath id="clip-2"><path d="M 422.0 571.0 L 989.0 571.0 L 989.0 62.0 L 422.0 62.0 Z M 422.2 571.2 "></path></clipPath><g clip-path="url(#clip-2)"><image xlink:href="9713CE0856CC18E88BA9A3A5B8FEFD4B.png" width="567.00" height="509.00" transform="matrix(1.00, 0.00, -0.00, -1.00, 422.0, 571.0)"></image></g></g><image xlink:href="B74B3F3E1E63AADBFA2DA235510737FA.png" width="2361.00" height="505.00" transform="matrix(0.24, 0.00, -0.00, -0.24, 422.2, 61.8)"></image></g></svg>