<?xml version="1.0" encoding="UTF-8" standalone="no"?><svg xmlns="http://www.w3.org/2000/svg" xmlns:xlink="http://www.w3.org/1999/xlink" clip-rule="evenodd" stroke-miterlimit="4.00" viewBox="0 0 1024 768"><desc>SVG generated by Keynote</desc><defs></defs><g transform="matrix(1.00, 0.00, -0.00, -1.00, 0.0, 768.0)"><path d="M 0.0 768.0 L 1024.0 768.0 L 1024.0 0.0 L 0.0 0.0 Z M 0.0 768.0 " fill="#000000"></path><text xml:space="preserve" font-family="Helvetica-Light" font-size="80.0" fill="#FEFFFF" transform="matrix(1.00, 0.00, -0.00, -1.00, 243.0, 633.0)">I</text><text xml:space="preserve" font-family="Helvetica-Light" font-size="80.0" fill="#FEFFFF" transform="matrix(1.00, 0.00, -0.00, -1.00, 265.2, 633.0)">n</text><text xml:space="preserve" font-family="Helvetica-Light" font-size="80.0" fill="#FEFFFF" transform="matrix(1.00, 0.00, -0.00, -1.00, 309.7, 633.0)">s</text><text xml:space="preserve" font-family="Helvetica-Light" font-size="80.0" fill="#FEFFFF" transform="matrix(1.00, 0.00, -0.00, -1.00, 349.7, 633.0)">t</text><text xml:space="preserve" font-family="Helvetica-Light" font-size="80.0" fill="#FEFFFF" transform="matrix(1.00, 0.00, -0.00, -1.00, 372.0, 633.0)">a</text><text xml:space="preserve" font-family="Helvetica-Light" font-size="80.0" fill="#FEFFFF" transform="matrix(1.00, 0.00, -0.00, -1.00, 416.4, 633.0)">l</text><text xml:space="preserve" font-family="Helvetica-Light" font-size="80.0" fill="#FEFFFF" transform="matrix(1.00, 0.00, -0.00, -1.00, 434.2, 633.0)">a</text><text xml:space="preserve" font-family="Helvetica-Light" font-size="80.0" fill="#FEFFFF" transform="matrix(1.00, 0.00, -0.00, -1.00, 478.7, 633.0)">n</text><text xml:space="preserve" font-family="Helvetica-Light" font-size="80.0" fill="#FEFFFF" transform="matrix(1.00, 0.00, -0.00, -1.00, 523.2, 633.0)">d</text><text xml:space="preserve" font-family="Helvetica-Light" font-size="80.0" fill="#FEFFFF" transform="matrix(1.00, 0.00, -0.00, -1.00, 572.0, 633.0)">o</text><text xml:space="preserve" font-family="Helvetica-Light" font-size="80.0" fill="#FEFFFF" transform="matrix(1.00, 0.00, -0.00, -1.00, 616.5, 633.0)"> </text><text xml:space="preserve" font-family="Helvetica-Light" font-size="80.0" fill="#FEFFFF" transform="matrix(1.00, 0.00, -0.00, -1.00, 638.8, 633.0)">P</text><text xml:space="preserve" font-family="Helvetica-Light" font-size="80.0" fill="#FEFFFF" transform="matrix(1.00, 0.00, -0.00, -1.00, 687.6, 633.0)">o</text><text xml:space="preserve" font-family="Helvetica-Light" font-size="80.0" fill="#FEFFFF" transform="matrix(1.00, 0.00, -0.00, -1.00, 732.1, 633.0)">d</text><text xml:space="preserve" font-family="Helvetica-Light" font-size="27.7" fill="#FEFFFF" transform="matrix(1.00, 0.00, -0.00, -1.00, 79.0, 534.0)">C</text><text xml:space="preserve" font-family="Helvetica-Light" font-size="27.7" fill="#FEFFFF" transform="matrix(1.00, 0.00, -0.00, -1.00, 99.0, 534.0)">r</text><text xml:space="preserve" font-family="Helvetica-Light" font-size="27.7" fill="#FEFFFF" transform="matrix(1.00, 0.00, -0.00, -1.00, 108.2, 534.0)">i</text><text xml:space="preserve" font-family="Helvetica-Light" font-size="27.7" fill="#FEFFFF" transform="matrix(1.00, 0.00, -0.00, -1.00, 114.4, 534.0)">a</text><text xml:space="preserve" font-family="Helvetica-Light" font-size="27.7" fill="#FEFFFF" transform="matrix(1.00, 0.00, -0.00, -1.00, 129.8, 534.0)">r</text><text xml:space="preserve" font-family="Helvetica-Light" font-size="27.7" fill="#FEFFFF" transform="matrix(1.00, 0.00, -0.00, -1.00, 139.0, 534.0)"> </text><text xml:space="preserve" font-family="Helvetica-Light" font-size="27.7" fill="#FEFFFF" transform="matrix(1.00, 0.00, -0.00, -1.00, 146.7, 534.0)">u</text><text xml:space="preserve" font-family="Helvetica-Light" font-size="27.7" fill="#FEFFFF" transform="matrix(1.00, 0.00, -0.00, -1.00, 162.2, 534.0)">m</text><text xml:space="preserve" font-family="Helvetica-Light" font-size="27.7" fill="#FEFFFF" transform="matrix(1.00, 0.00, -0.00, -1.00, 185.3, 534.0)"> </text><text xml:space="preserve" font-family="Helvetica-Light" font-size="27.7" fill="#FEFFFF" transform="matrix(1.00, 0.00, -0.00, -1.00, 193.0, 534.0)">p</text><text xml:space="preserve" font-family="Helvetica-Light" font-size="27.7" fill="#FEFFFF" transform="matrix(1.00, 0.00, -0.00, -1.00, 209.9, 534.0)">r</text><text xml:space="preserve" font-family="Helvetica-Light" font-size="27.7" fill="#FEFFFF" transform="matrix(1.00, 0.00, -0.00, -1.00, 218.6, 534.0)">o</text><text xml:space="preserve" font-family="Helvetica-Light" font-size="27.7" fill="#FEFFFF" transform="matrix(1.00, 0.00, -0.00, -1.00, 234.0, 534.0)">j</text><text xml:space="preserve" font-family="Helvetica-Light" font-size="27.7" fill="#FEFFFF" transform="matrix(1.00, 0.00, -0.00, -1.00, 240.2, 534.0)">e</text><text xml:space="preserve" font-family="Helvetica-Light" font-size="27.7" fill="#FEFFFF" transform="matrix(1.00, 0.00, -0.00, -1.00, 255.6, 534.0)">t</text><text xml:space="preserve" font-family="Helvetica-Light" font-size="27.7" fill="#FEFFFF" transform="matrix(1.00, 0.00, -0.00, -1.00, 263.3, 534.0)">o</text><text xml:space="preserve" font-family="Helvetica-Light" font-size="27.7" fill="#FEFFFF" transform="matrix(1.00, 0.00, -0.00, -1.00, 278.7, 534.0)"> </text><text xml:space="preserve" font-family="Helvetica-Light" font-size="27.7" fill="#FEFFFF" transform="matrix(1.00, 0.00, -0.00, -1.00, 79.0, 471.0)">N</text><text xml:space="preserve" font-family="Helvetica-Light" font-size="27.7" fill="#FEFFFF" transform="matrix(1.00, 0.00, -0.00, -1.00, 99.0, 471.0)">o</text><text xml:space="preserve" font-family="Helvetica-Light" font-size="27.7" fill="#FEFFFF" transform="matrix(1.00, 0.00, -0.00, -1.00, 114.4, 471.0)"> </text><text xml:space="preserve" font-family="Helvetica-Light" font-size="27.7" fill="#FEFFFF" transform="matrix(1.00, 0.00, -0.00, -1.00, 122.1, 471.0)">t</text><text xml:space="preserve" font-family="Helvetica-Light" font-size="27.7" fill="#FEFFFF" transform="matrix(1.00, 0.00, -0.00, -1.00, 129.8, 471.0)">e</text><text xml:space="preserve" font-family="Helvetica-Light" font-size="27.7" fill="#FEFFFF" transform="matrix(1.00, 0.00, -0.00, -1.00, 145.3, 471.0)">r</text><text xml:space="preserve" font-family="Helvetica-Light" font-size="27.7" fill="#FEFFFF" transform="matrix(1.00, 0.00, -0.00, -1.00, 155.0, 471.0)">m</text><text xml:space="preserve" font-family="Helvetica-Light" font-size="27.7" fill="#FEFFFF" transform="matrix(1.00, 0.00, -0.00, -1.00, 178.1, 471.0)">i</text><text xml:space="preserve" font-family="Helvetica-Light" font-size="27.7" fill="#FEFFFF" transform="matrix(1.00, 0.00, -0.00, -1.00, 184.2, 471.0)">n</text><text xml:space="preserve" font-family="Helvetica-Light" font-size="27.7" fill="#FEFFFF" transform="matrix(1.00, 0.00, -0.00, -1.00, 199.6, 471.0)">a</text><text xml:space="preserve" font-family="Helvetica-Light" font-size="27.7" fill="#FEFFFF" transform="matrix(1.00, 0.00, -0.00, -1.00, 215.0, 471.0)">l</text><text xml:space="preserve" font-family="Helvetica-Light" font-size="27.7" fill="#FEFFFF" transform="matrix(1.00, 0.00, -0.00, -1.00, 221.2, 471.0)"> </text><text xml:space="preserve" font-family="Helvetica-Light" font-size="27.7" fill="#FEFFFF" transform="matrix(1.00, 0.00, -0.00, -1.00, 228.9, 471.0)">e</text><text xml:space="preserve" font-family="Helvetica-Light" font-size="27.7" fill="#FEFFFF" transform="matrix(1.00, 0.00, -0.00, -1.00, 244.3, 471.0)">n</text><text xml:space="preserve" font-family="Helvetica-Light" font-size="27.7" fill="#FEFFFF" transform="matrix(1.00, 0.00, -0.00, -1.00, 259.7, 471.0)">t</text><text xml:space="preserve" font-family="Helvetica-Light" font-size="27.7" fill="#FEFFFF" transform="matrix(1.00, 0.00, -0.00, -1.00, 267.4, 471.0)">r</text><text xml:space="preserve" font-family="Helvetica-Light" font-size="27.7" fill="#FEFFFF" transform="matrix(1.00, 0.00, -0.00, -1.00, 276.7, 471.0)">a</text><text xml:space="preserve" font-family="Helvetica-Light" font-size="27.7" fill="#FEFFFF" transform="matrix(1.00, 0.00, -0.00, -1.00, 292.1, 471.0)">r</text><text xml:space="preserve" font-family="Helvetica-Light" font-size="27.7" fill="#FEFFFF" transform="matrix(1.00, 0.00, -0.00, -1.00, 301.3, 471.0)"> </text><text xml:space="preserve" font-family="Helvetica-Light" font-size="27.7" fill="#FEFFFF" transform="matrix(1.00, 0.00, -0.00, -1.00, 309.0, 471.0)">n</text><text xml:space="preserve" font-family="Helvetica-Light" font-size="27.7" fill="#FEFFFF" transform="matrix(1.00, 0.00, -0.00, -1.00, 324.4, 471.0)">a</text><text xml:space="preserve" font-family="Helvetica-Light" font-size="27.7" fill="#FEFFFF" transform="matrix(1.00, 0.00, -0.00, -1.00, 339.8, 471.0)"> </text><text xml:space="preserve" font-family="Helvetica-Light" font-size="27.7" fill="#FEFFFF" transform="matrix(1.00, 0.00, -0.00, -1.00, 347.6, 471.0)">p</text><text xml:space="preserve" font-family="Helvetica-Light" font-size="27.7" fill="#FEFFFF" transform="matrix(1.00, 0.00, -0.00, -1.00, 364.5, 471.0)">a</text><text xml:space="preserve" font-family="Helvetica-Light" font-size="27.7" fill="#FEFFFF" transform="matrix(1.00, 0.00, -0.00, -1.00, 379.9, 471.0)">s</text><text xml:space="preserve" font-family="Helvetica-Light" font-size="27.7" fill="#FEFFFF" transform="matrix(1.00, 0.00, -0.00, -1.00, 393.8, 471.0)">t</text><text xml:space="preserve" font-family="Helvetica-Light" font-size="27.7" fill="#FEFFFF" transform="matrix(1.00, 0.00, -0.00, -1.00, 401.5, 471.0)">a</text><text xml:space="preserve" font-family="Helvetica-Light" font-size="27.7" fill="#FEFFFF" transform="matrix(1.00, 0.00, -0.00, -1.00, 416.9, 471.0)"> </text><text xml:space="preserve" font-family="Helvetica-Light" font-size="27.7" fill="#FEFFFF" transform="matrix(1.00, 0.00, -0.00, -1.00, 424.6, 471.0)">d</text><text xml:space="preserve" font-family="Helvetica-Light" font-size="27.7" fill="#FEFFFF" transform="matrix(1.00, 0.00, -0.00, -1.00, 441.5, 471.0)">o</text><text xml:space="preserve" font-family="Helvetica-Light" font-size="27.7" fill="#FEFFFF" transform="matrix(1.00, 0.00, -0.00, -1.00, 456.9, 471.0)"> </text><text xml:space="preserve" font-family="Helvetica-Light" font-size="27.7" fill="#FEFFFF" transform="matrix(1.00, 0.00, -0.00, -1.00, 79.0, 439.0)">p</text><text xml:space="preserve" font-family="Helvetica-Light" font-size="27.7" fill="#FEFFFF" transform="matrix(1.00, 0.00, -0.00, -1.00, 95.9, 439.0)">r</text><text xml:space="preserve" font-family="Helvetica-Light" font-size="27.7" fill="#FEFFFF" transform="matrix(1.00, 0.00, -0.00, -1.00, 104.7, 439.0)">o</text><text xml:space="preserve" font-family="Helvetica-Light" font-size="27.7" fill="#FEFFFF" transform="matrix(1.00, 0.00, -0.00, -1.00, 120.1, 439.0)">j</text><text xml:space="preserve" font-family="Helvetica-Light" font-size="27.7" fill="#FEFFFF" transform="matrix(1.00, 0.00, -0.00, -1.00, 126.2, 439.0)">e</text><text xml:space="preserve" font-family="Helvetica-Light" font-size="27.7" fill="#FEFFFF" transform="matrix(1.00, 0.00, -0.00, -1.00, 141.6, 439.0)">t</text><text xml:space="preserve" font-family="Helvetica-Light" font-size="27.7" fill="#FEFFFF" transform="matrix(1.00, 0.00, -0.00, -1.00, 149.4, 439.0)">o</text><text xml:space="preserve" font-family="Helvetica-Light" font-size="27.7" fill="#FEFFFF" transform="matrix(1.00, 0.00, -0.00, -1.00, 164.8, 439.0)"> </text><text xml:space="preserve" font-family="Helvetica-Light" font-size="27.7" fill="#FEFFFF" transform="matrix(1.00, 0.00, -0.00, -1.00, 79.0, 375.0)">U</text><text xml:space="preserve" font-family="Helvetica-Light" font-size="27.7" fill="#FEFFFF" transform="matrix(1.00, 0.00, -0.00, -1.00, 99.0, 375.0)">s</text><text xml:space="preserve" font-family="Helvetica-Light" font-size="27.7" fill="#FEFFFF" transform="matrix(1.00, 0.00, -0.00, -1.00, 112.9, 375.0)">a</text><text xml:space="preserve" font-family="Helvetica-Light" font-size="27.7" fill="#FEFFFF" transform="matrix(1.00, 0.00, -0.00, -1.00, 128.3, 375.0)">r</text><text xml:space="preserve" font-family="Helvetica-Light" font-size="27.7" fill="#FEFFFF" transform="matrix(1.00, 0.00, -0.00, -1.00, 137.5, 375.0)"> </text><text xml:space="preserve" font-family="Helvetica-Light" font-size="27.7" fill="#FEFFFF" transform="matrix(1.00, 0.00, -0.00, -1.00, 145.2, 375.0)">o</text><text xml:space="preserve" font-family="Helvetica-Light" font-size="27.7" fill="#FEFFFF" transform="matrix(1.00, 0.00, -0.00, -1.00, 160.6, 375.0)"> </text><text xml:space="preserve" font-family="Helvetica-Light" font-size="27.7" fill="#FEFFFF" transform="matrix(1.00, 0.00, -0.00, -1.00, 168.3, 375.0)">c</text><text xml:space="preserve" font-family="Helvetica-Light" font-size="27.7" fill="#FEFFFF" transform="matrix(1.00, 0.00, -0.00, -1.00, 183.8, 375.0)">o</text><text xml:space="preserve" font-family="Helvetica-Light" font-size="27.7" fill="#FEFFFF" transform="matrix(1.00, 0.00, -0.00, -1.00, 199.2, 375.0)">m</text><text xml:space="preserve" font-family="Helvetica-Light" font-size="27.7" fill="#FEFFFF" transform="matrix(1.00, 0.00, -0.00, -1.00, 222.3, 375.0)">a</text><text xml:space="preserve" font-family="Helvetica-Light" font-size="27.7" fill="#FEFFFF" transform="matrix(1.00, 0.00, -0.00, -1.00, 237.7, 375.0)">n</text><text xml:space="preserve" font-family="Helvetica-Light" font-size="27.7" fill="#FEFFFF" transform="matrix(1.00, 0.00, -0.00, -1.00, 253.1, 375.0)">d</text><text xml:space="preserve" font-family="Helvetica-Light" font-size="27.7" fill="#FEFFFF" transform="matrix(1.00, 0.00, -0.00, -1.00, 270.0, 375.0)">o</text><text xml:space="preserve" font-family="Helvetica-Light" font-size="27.7" fill="#FEFFFF" transform="matrix(1.00, 0.00, -0.00, -1.00, 285.4, 375.0)"> </text><text xml:space="preserve" font-family="Helvetica-BoldOblique" font-style="italic" font-weight="bold" font-size="27.7" fill="#FEFFFF" transform="matrix(1.00, 0.00, -0.00, -1.00, 293.1, 375.0)">p</text><text xml:space="preserve" font-family="Helvetica-BoldOblique" font-style="italic" font-weight="bold" font-size="27.7" fill="#FEFFFF" transform="matrix(1.00, 0.00, -0.00, -1.00, 310.1, 375.0)">o</text><text xml:space="preserve" font-family="Helvetica-BoldOblique" font-style="italic" font-weight="bold" font-size="27.7" fill="#FEFFFF" transform="matrix(1.00, 0.00, -0.00, -1.00, 327.0, 375.0)">d</text><text xml:space="preserve" font-family="Helvetica-BoldOblique" font-style="italic" font-weight="bold" font-size="27.7" fill="#FEFFFF" transform="matrix(1.00, 0.00, -0.00, -1.00, 343.9, 375.0)"> </text><text xml:space="preserve" font-family="Helvetica-BoldOblique" font-style="italic" font-weight="bold" font-size="27.7" fill="#FEFFFF" transform="matrix(1.00, 0.00, -0.00, -1.00, 351.6, 375.0)">i</text><text xml:space="preserve" font-family="Helvetica-BoldOblique" font-style="italic" font-weight="bold" font-size="27.7" fill="#FEFFFF" transform="matrix(1.00, 0.00, -0.00, -1.00, 359.3, 375.0)">n</text><text xml:space="preserve" font-family="Helvetica-BoldOblique" font-style="italic" font-weight="bold" font-size="27.7" fill="#FEFFFF" transform="matrix(1.00, 0.00, -0.00, -1.00, 376.2, 375.0)">i</text><text xml:space="preserve" font-family="Helvetica-BoldOblique" font-style="italic" font-weight="bold" font-size="27.7" fill="#FEFFFF" transform="matrix(1.00, 0.00, -0.00, -1.00, 383.9, 375.0)">t</text><text xml:space="preserve" font-family="Helvetica-Light" font-size="27.7" fill="#FEFFFF" transform="matrix(1.00, 0.00, -0.00, -1.00, 393.2, 375.0)"> </text><text xml:space="preserve" font-family="Helvetica-Light" font-size="27.7" fill="#FEFFFF" transform="matrix(1.00, 0.00, -0.00, -1.00, 79.0, 311.0)">E</text><text xml:space="preserve" font-family="Helvetica-Light" font-size="27.7" fill="#FEFFFF" transform="matrix(1.00, 0.00, -0.00, -1.00, 95.9, 311.0)">n</text><text xml:space="preserve" font-family="Helvetica-Light" font-size="27.7" fill="#FEFFFF" transform="matrix(1.00, 0.00, -0.00, -1.00, 111.3, 311.0)">t</text><text xml:space="preserve" font-family="Helvetica-Light" font-size="27.7" fill="#FEFFFF" transform="matrix(1.00, 0.00, -0.00, -1.00, 119.1, 311.0)">r</text><text xml:space="preserve" font-family="Helvetica-Light" font-size="27.7" fill="#FEFFFF" transform="matrix(1.00, 0.00, -0.00, -1.00, 128.3, 311.0)">a</text><text xml:space="preserve" font-family="Helvetica-Light" font-size="27.7" fill="#FEFFFF" transform="matrix(1.00, 0.00, -0.00, -1.00, 143.7, 311.0)">r</text><text xml:space="preserve" font-family="Helvetica-Light" font-size="27.7" fill="#FEFFFF" transform="matrix(1.00, 0.00, -0.00, -1.00, 152.9, 311.0)"> </text><text xml:space="preserve" font-family="Helvetica-Light" font-size="27.7" fill="#FEFFFF" transform="matrix(1.00, 0.00, -0.00, -1.00, 160.6, 311.0)">n</text><text xml:space="preserve" font-family="Helvetica-Light" font-size="27.7" fill="#FEFFFF" transform="matrix(1.00, 0.00, -0.00, -1.00, 176.0, 311.0)">o</text><text xml:space="preserve" font-family="Helvetica-Light" font-size="27.7" fill="#FEFFFF" transform="matrix(1.00, 0.00, -0.00, -1.00, 191.5, 311.0)"> </text><text xml:space="preserve" font-family="Helvetica-Light" font-size="27.7" fill="#FEFFFF" transform="matrix(1.00, 0.00, -0.00, -1.00, 199.2, 311.0)">P</text><text xml:space="preserve" font-family="Helvetica-Light" font-size="27.7" fill="#FEFFFF" transform="matrix(1.00, 0.00, -0.00, -1.00, 216.1, 311.0)">o</text><text xml:space="preserve" font-family="Helvetica-Light" font-size="27.7" fill="#FEFFFF" transform="matrix(1.00, 0.00, -0.00, -1.00, 231.5, 311.0)">d</text><text xml:space="preserve" font-family="Helvetica-Light" font-size="27.7" fill="#FEFFFF" transform="matrix(1.00, 0.00, -0.00, -1.00, 248.5, 311.0)">ﬁ</text><text xml:space="preserve" font-family="Helvetica-Light" font-size="27.7" fill="#FEFFFF" transform="matrix(1.00, 0.00, -0.00, -1.00, 262.3, 311.0)">l</text><text xml:space="preserve" font-family="Helvetica-Light" font-size="27.7" fill="#FEFFFF" transform="matrix(1.00, 0.00, -0.00, -1.00, 268.5, 311.0)">e</text><text xml:space="preserve" font-family="Helvetica-Light" font-size="27.7" fill="#FEFFFF" transform="matrix(1.00, 0.00, -0.00, -1.00, 283.9, 311.0)"> </text><text xml:space="preserve" font-family="Helvetica-Light" font-size="27.7" fill="#FEFFFF" transform="matrix(1.00, 0.00, -0.00, -1.00, 291.6, 311.0)">e</text><text xml:space="preserve" font-family="Helvetica-Light" font-size="27.7" fill="#FEFFFF" transform="matrix(1.00, 0.00, -0.00, -1.00, 307.0, 311.0)"> </text><text xml:space="preserve" font-family="Helvetica-Light" font-size="27.7" fill="#FEFFFF" transform="matrix(1.00, 0.00, -0.00, -1.00, 314.7, 311.0)">c</text><text xml:space="preserve" font-family="Helvetica-Light" font-size="27.7" fill="#FEFFFF" transform="matrix(1.00, 0.00, -0.00, -1.00, 330.1, 311.0)">o</text><text xml:space="preserve" font-family="Helvetica-Light" font-size="27.7" fill="#FEFFFF" transform="matrix(1.00, 0.00, -0.00, -1.00, 345.5, 311.0)">l</text><text xml:space="preserve" font-family="Helvetica-Light" font-size="27.7" fill="#FEFFFF" transform="matrix(1.00, 0.00, -0.00, -1.00, 351.7, 311.0)">o</text><text xml:space="preserve" font-family="Helvetica-Light" font-size="27.7" fill="#FEFFFF" transform="matrix(1.00, 0.00, -0.00, -1.00, 367.1, 311.0)">c</text><text xml:space="preserve" font-family="Helvetica-Light" font-size="27.7" fill="#FEFFFF" transform="matrix(1.00, 0.00, -0.00, -1.00, 382.5, 311.0)">o</text><text xml:space="preserve" font-family="Helvetica-Light" font-size="27.7" fill="#FEFFFF" transform="matrix(1.00, 0.00, -0.00, -1.00, 397.9, 311.0)"> </text><text xml:space="preserve" font-family="Helvetica-Light" font-size="27.7" fill="#FEFFFF" transform="matrix(1.00, 0.00, -0.00, -1.00, 405.6, 311.0)">o</text><text xml:space="preserve" font-family="Helvetica-Light" font-size="27.7" fill="#FEFFFF" transform="matrix(1.00, 0.00, -0.00, -1.00, 421.0, 311.0)"> </text><text xml:space="preserve" font-family="Helvetica-Light" font-size="27.7" fill="#FEFFFF" transform="matrix(1.00, 0.00, -0.00, -1.00, 79.0, 279.0)">n</text><text xml:space="preserve" font-family="Helvetica-Light" font-size="27.7" fill="#FEFFFF" transform="matrix(1.00, 0.00, -0.00, -1.00, 94.4, 279.0)">o</text><text xml:space="preserve" font-family="Helvetica-Light" font-size="27.7" fill="#FEFFFF" transform="matrix(1.00, 0.00, -0.00, -1.00, 109.8, 279.0)">m</text><text xml:space="preserve" font-family="Helvetica-Light" font-size="27.7" fill="#FEFFFF" transform="matrix(1.00, 0.00, -0.00, -1.00, 132.9, 279.0)">e</text><text xml:space="preserve" font-family="Helvetica-Light" font-size="27.7" fill="#FEFFFF" transform="matrix(1.00, 0.00, -0.00, -1.00, 148.3, 279.0)"> </text><text xml:space="preserve" font-family="Helvetica-Light" font-size="27.7" fill="#FEFFFF" transform="matrix(1.00, 0.00, -0.00, -1.00, 156.0, 279.0)">d</text><text xml:space="preserve" font-family="Helvetica-Light" font-size="27.7" fill="#FEFFFF" transform="matrix(1.00, 0.00, -0.00, -1.00, 173.0, 279.0)">o</text><text xml:space="preserve" font-family="Helvetica-Light" font-size="27.7" fill="#FEFFFF" transform="matrix(1.00, 0.00, -0.00, -1.00, 188.4, 279.0)"> </text><text xml:space="preserve" font-family="Helvetica-Light" font-size="27.7" fill="#FEFFFF" transform="matrix(1.00, 0.00, -0.00, -1.00, 196.1, 279.0)">p</text><text xml:space="preserve" font-family="Helvetica-Light" font-size="27.7" fill="#FEFFFF" transform="matrix(1.00, 0.00, -0.00, -1.00, 213.0, 279.0)">o</text><text xml:space="preserve" font-family="Helvetica-Light" font-size="27.7" fill="#FEFFFF" transform="matrix(1.00, 0.00, -0.00, -1.00, 228.4, 279.0)">d</text><text xml:space="preserve" font-family="Helvetica-Light" font-size="27.7" fill="#FEFFFF" transform="matrix(1.00, 0.00, -0.00, -1.00, 245.4, 279.0)"> </text><text xml:space="preserve" font-family="Helvetica-Light" font-size="27.7" fill="#FEFFFF" transform="matrix(1.00, 0.00, -0.00, -1.00, 253.1, 279.0)">q</text><text xml:space="preserve" font-family="Helvetica-Light" font-size="27.7" fill="#FEFFFF" transform="matrix(1.00, 0.00, -0.00, -1.00, 270.0, 279.0)">u</text><text xml:space="preserve" font-family="Helvetica-Light" font-size="27.7" fill="#FEFFFF" transform="matrix(1.00, 0.00, -0.00, -1.00, 285.4, 279.0)">e</text><text xml:space="preserve" font-family="Helvetica-Light" font-size="27.7" fill="#FEFFFF" transform="matrix(1.00, 0.00, -0.00, -1.00, 300.8, 279.0)"> </text><text xml:space="preserve" font-family="Helvetica-Light" font-size="27.7" fill="#FEFFFF" transform="matrix(1.00, 0.00, -0.00, -1.00, 308.5, 279.0)">s</text><text xml:space="preserve" font-family="Helvetica-Light" font-size="27.7" fill="#FEFFFF" transform="matrix(1.00, 0.00, -0.00, -1.00, 322.4, 279.0)">e</text><text xml:space="preserve" font-family="Helvetica-Light" font-size="27.7" fill="#FEFFFF" transform="matrix(1.00, 0.00, -0.00, -1.00, 337.8, 279.0)">r</text><text xml:space="preserve" font-family="Helvetica-Light" font-size="27.7" fill="#FEFFFF" transform="matrix(1.00, 0.00, -0.00, -1.00, 347.1, 279.0)">á</text><text xml:space="preserve" font-family="Helvetica-Light" font-size="27.7" fill="#FEFFFF" transform="matrix(1.00, 0.00, -0.00, -1.00, 362.5, 279.0)"> </text><text xml:space="preserve" font-family="Helvetica-Light" font-size="27.7" fill="#FEFFFF" transform="matrix(1.00, 0.00, -0.00, -1.00, 370.2, 279.0)">i</text><text xml:space="preserve" font-family="Helvetica-Light" font-size="27.7" fill="#FEFFFF" transform="matrix(1.00, 0.00, -0.00, -1.00, 376.3, 279.0)">n</text><text xml:space="preserve" font-family="Helvetica-Light" font-size="27.7" fill="#FEFFFF" transform="matrix(1.00, 0.00, -0.00, -1.00, 391.7, 279.0)">s</text><text xml:space="preserve" font-family="Helvetica-Light" font-size="27.7" fill="#FEFFFF" transform="matrix(1.00, 0.00, -0.00, -1.00, 405.6, 279.0)">t</text><text xml:space="preserve" font-family="Helvetica-Light" font-size="27.7" fill="#FEFFFF" transform="matrix(1.00, 0.00, -0.00, -1.00, 413.3, 279.0)">a</text><text xml:space="preserve" font-family="Helvetica-Light" font-size="27.7" fill="#FEFFFF" transform="matrix(1.00, 0.00, -0.00, -1.00, 428.7, 279.0)">l</text><text xml:space="preserve" font-family="Helvetica-Light" font-size="27.7" fill="#FEFFFF" transform="matrix(1.00, 0.00, -0.00, -1.00, 434.9, 279.0)">a</text><text xml:space="preserve" font-family="Helvetica-Light" font-size="27.7" fill="#FEFFFF" transform="matrix(1.00, 0.00, -0.00, -1.00, 450.3, 279.0)">d</text><text xml:space="preserve" font-family="Helvetica-Light" font-size="27.7" fill="#FEFFFF" transform="matrix(1.00, 0.00, -0.00, -1.00, 467.2, 279.0)">o</text><text xml:space="preserve" font-family="Helvetica-Light" font-size="27.7" fill="#FEFFFF" transform="matrix(1.00, 0.00, -0.00, -1.00, 482.6, 279.0)">:</text><text xml:space="preserve" font-family="Helvetica-Light" font-size="27.7" fill="#FEFFFF" transform="matrix(1.00, 0.00, -0.00, -1.00, 490.3, 279.0)"> </text><text xml:space="preserve" font-family="Helvetica-BoldOblique" font-style="italic" font-weight="bold" font-size="27.7" fill="#FEFFFF" transform="matrix(1.00, 0.00, -0.00, -1.00, 79.0, 247.0)">N</text><text xml:space="preserve" font-family="Helvetica-BoldOblique" font-style="italic" font-weight="bold" font-size="27.7" fill="#FEFFFF" transform="matrix(1.00, 0.00, -0.00, -1.00, 99.0, 247.0)">V</text><text xml:space="preserve" font-family="Helvetica-BoldOblique" font-style="italic" font-weight="bold" font-size="27.7" fill="#FEFFFF" transform="matrix(1.00, 0.00, -0.00, -1.00, 115.5, 247.0)">A</text><text xml:space="preserve" font-family="Helvetica-BoldOblique" font-style="italic" font-weight="bold" font-size="27.7" fill="#FEFFFF" transform="matrix(1.00, 0.00, -0.00, -1.00, 135.5, 247.0)">c</text><text xml:space="preserve" font-family="Helvetica-BoldOblique" font-style="italic" font-weight="bold" font-size="27.7" fill="#FEFFFF" transform="matrix(1.00, 0.00, -0.00, -1.00, 150.9, 247.0)">t</text><text xml:space="preserve" font-family="Helvetica-BoldOblique" font-style="italic" font-weight="bold" font-size="27.7" fill="#FEFFFF" transform="matrix(1.00, 0.00, -0.00, -1.00, 160.1, 247.0)">i</text><text xml:space="preserve" font-family="Helvetica-BoldOblique" font-style="italic" font-weight="bold" font-size="27.7" fill="#FEFFFF" transform="matrix(1.00, 0.00, -0.00, -1.00, 167.8, 247.0)">v</text><text xml:space="preserve" font-family="Helvetica-BoldOblique" font-style="italic" font-weight="bold" font-size="27.7" fill="#FEFFFF" transform="matrix(1.00, 0.00, -0.00, -1.00, 183.3, 247.0)">i</text><text xml:space="preserve" font-family="Helvetica-BoldOblique" font-style="italic" font-weight="bold" font-size="27.7" fill="#FEFFFF" transform="matrix(1.00, 0.00, -0.00, -1.00, 191.0, 247.0)">t</text><text xml:space="preserve" font-family="Helvetica-BoldOblique" font-style="italic" font-weight="bold" font-size="27.7" fill="#FEFFFF" transform="matrix(1.00, 0.00, -0.00, -1.00, 200.2, 247.0)">y</text><text xml:space="preserve" font-family="Helvetica-BoldOblique" font-style="italic" font-weight="bold" font-size="27.7" fill="#FEFFFF" transform="matrix(1.00, 0.00, -0.00, -1.00, 215.6, 247.0)">I</text><text xml:space="preserve" font-family="Helvetica-BoldOblique" font-style="italic" font-weight="bold" font-size="27.7" fill="#FEFFFF" transform="matrix(1.00, 0.00, -0.00, -1.00, 223.3, 247.0)">n</text><text xml:space="preserve" font-family="Helvetica-BoldOblique" font-style="italic" font-weight="bold" font-size="27.7" fill="#FEFFFF" transform="matrix(1.00, 0.00, -0.00, -1.00, 240.2, 247.0)">d</text><text xml:space="preserve" font-family="Helvetica-BoldOblique" font-style="italic" font-weight="bold" font-size="27.7" fill="#FEFFFF" transform="matrix(1.00, 0.00, -0.00, -1.00, 257.2, 247.0)">i</text><text xml:space="preserve" font-family="Helvetica-BoldOblique" font-style="italic" font-weight="bold" font-size="27.7" fill="#FEFFFF" transform="matrix(1.00, 0.00, -0.00, -1.00, 264.9, 247.0)">c</text><text xml:space="preserve" font-family="Helvetica-BoldOblique" font-style="italic" font-weight="bold" font-size="27.7" fill="#FEFFFF" transform="matrix(1.00, 0.00, -0.00, -1.00, 280.3, 247.0)">a</text><text xml:space="preserve" font-family="Helvetica-BoldOblique" font-style="italic" font-weight="bold" font-size="27.7" fill="#FEFFFF" transform="matrix(1.00, 0.00, -0.00, -1.00, 295.7, 247.0)">t</text><text xml:space="preserve" font-family="Helvetica-BoldOblique" font-style="italic" font-weight="bold" font-size="27.7" fill="#FEFFFF" transform="matrix(1.00, 0.00, -0.00, -1.00, 304.9, 247.0)">o</text><text xml:space="preserve" font-family="Helvetica-BoldOblique" font-style="italic" font-weight="bold" font-size="27.7" fill="#FEFFFF" transform="matrix(1.00, 0.00, -0.00, -1.00, 321.9, 247.0)">r</text><text xml:space="preserve" font-family="Helvetica-BoldOblique" font-style="italic" font-weight="bold" font-size="27.7" fill="#FEFFFF" transform="matrix(1.00, 0.00, -0.00, -1.00, 332.7, 247.0)">V</text><text xml:space="preserve" font-family="Helvetica-BoldOblique" font-style="italic" font-weight="bold" font-size="27.7" fill="#FEFFFF" transform="matrix(1.00, 0.00, -0.00, -1.00, 350.7, 247.0)">i</text><text xml:space="preserve" font-family="Helvetica-BoldOblique" font-style="italic" font-weight="bold" font-size="27.7" fill="#FEFFFF" transform="matrix(1.00, 0.00, -0.00, -1.00, 358.4, 247.0)">e</text><text xml:space="preserve" font-family="Helvetica-BoldOblique" font-style="italic" font-weight="bold" font-size="27.7" fill="#FEFFFF" transform="matrix(1.00, 0.00, -0.00, -1.00, 373.8, 247.0)">w</text><text xml:space="preserve" font-family="Helvetica-Light" font-size="27.7" fill="#FEFFFF" transform="matrix(1.00, 0.00, -0.00, -1.00, 79.0, 184.0)">D</text><text xml:space="preserve" font-family="Helvetica-Light" font-size="27.7" fill="#FEFFFF" transform="matrix(1.00, 0.00, -0.00, -1.00, 99.0, 184.0)">e</text><text xml:space="preserve" font-family="Helvetica-Light" font-size="27.7" fill="#FEFFFF" transform="matrix(1.00, 0.00, -0.00, -1.00, 114.4, 184.0)">p</text><text xml:space="preserve" font-family="Helvetica-Light" font-size="27.7" fill="#FEFFFF" transform="matrix(1.00, 0.00, -0.00, -1.00, 131.4, 184.0)">o</text><text xml:space="preserve" font-family="Helvetica-Light" font-size="27.7" fill="#FEFFFF" transform="matrix(1.00, 0.00, -0.00, -1.00, 146.8, 184.0)">i</text><text xml:space="preserve" font-family="Helvetica-Light" font-size="27.7" fill="#FEFFFF" transform="matrix(1.00, 0.00, -0.00, -1.00, 152.9, 184.0)">s</text><text xml:space="preserve" font-family="Helvetica-Light" font-size="27.7" fill="#FEFFFF" transform="matrix(1.00, 0.00, -0.00, -1.00, 166.8, 184.0)"> </text><text xml:space="preserve" font-family="Helvetica-Light" font-size="27.7" fill="#FEFFFF" transform="matrix(1.00, 0.00, -0.00, -1.00, 174.5, 184.0)">d</text><text xml:space="preserve" font-family="Helvetica-Light" font-size="27.7" fill="#FEFFFF" transform="matrix(1.00, 0.00, -0.00, -1.00, 191.4, 184.0)">i</text><text xml:space="preserve" font-family="Helvetica-Light" font-size="27.7" fill="#FEFFFF" transform="matrix(1.00, 0.00, -0.00, -1.00, 197.6, 184.0)">s</text><text xml:space="preserve" font-family="Helvetica-Light" font-size="27.7" fill="#FEFFFF" transform="matrix(1.00, 0.00, -0.00, -1.00, 211.4, 184.0)">s</text><text xml:space="preserve" font-family="Helvetica-Light" font-size="27.7" fill="#FEFFFF" transform="matrix(1.00, 0.00, -0.00, -1.00, 225.3, 184.0)">o</text><text xml:space="preserve" font-family="Helvetica-Light" font-size="27.7" fill="#FEFFFF" transform="matrix(1.00, 0.00, -0.00, -1.00, 240.7, 184.0)">,</text><text xml:space="preserve" font-family="Helvetica-Light" font-size="27.7" fill="#FEFFFF" transform="matrix(1.00, 0.00, -0.00, -1.00, 248.4, 184.0)"> </text><text xml:space="preserve" font-family="Helvetica-BoldOblique" font-style="italic" font-weight="bold" font-size="27.7" fill="#FEFFFF" transform="matrix(1.00, 0.00, -0.00, -1.00, 256.1, 184.0)">p</text><text xml:space="preserve" font-family="Helvetica-BoldOblique" font-style="italic" font-weight="bold" font-size="27.7" fill="#FEFFFF" transform="matrix(1.00, 0.00, -0.00, -1.00, 273.1, 184.0)">o</text><text xml:space="preserve" font-family="Helvetica-BoldOblique" font-style="italic" font-weight="bold" font-size="27.7" fill="#FEFFFF" transform="matrix(1.00, 0.00, -0.00, -1.00, 290.0, 184.0)">d</text><text xml:space="preserve" font-family="Helvetica-BoldOblique" font-style="italic" font-weight="bold" font-size="27.7" fill="#FEFFFF" transform="matrix(1.00, 0.00, -0.00, -1.00, 306.9, 184.0)"> </text><text xml:space="preserve" font-family="Helvetica-BoldOblique" font-style="italic" font-weight="bold" font-size="27.7" fill="#FEFFFF" transform="matrix(1.00, 0.00, -0.00, -1.00, 314.6, 184.0)">i</text><text xml:space="preserve" font-family="Helvetica-BoldOblique" font-style="italic" font-weight="bold" font-size="27.7" fill="#FEFFFF" transform="matrix(1.00, 0.00, -0.00, -1.00, 322.3, 184.0)">n</text><text xml:space="preserve" font-family="Helvetica-BoldOblique" font-style="italic" font-weight="bold" font-size="27.7" fill="#FEFFFF" transform="matrix(1.00, 0.00, -0.00, -1.00, 339.2, 184.0)">s</text><text xml:space="preserve" font-family="Helvetica-BoldOblique" font-style="italic" font-weight="bold" font-size="27.7" fill="#FEFFFF" transform="matrix(1.00, 0.00, -0.00, -1.00, 354.7, 184.0)">t</text><text xml:space="preserve" font-family="Helvetica-BoldOblique" font-style="italic" font-weight="bold" font-size="27.7" fill="#FEFFFF" transform="matrix(1.00, 0.00, -0.00, -1.00, 363.9, 184.0)">a</text><text xml:space="preserve" font-family="Helvetica-BoldOblique" font-style="italic" font-weight="bold" font-size="27.7" fill="#FEFFFF" transform="matrix(1.00, 0.00, -0.00, -1.00, 379.3, 184.0)">l</text><text xml:space="preserve" font-family="Helvetica-BoldOblique" font-style="italic" font-weight="bold" font-size="27.7" fill="#FEFFFF" transform="matrix(1.00, 0.00, -0.00, -1.00, 387.0, 184.0)">l</text><text xml:space="preserve" font-family="Helvetica-Light" font-size="27.7" fill="#FEFFFF" transform="matrix(1.00, 0.00, -0.00, -1.00, 394.7, 184.0)"> </text><text xml:space="preserve" font-family="Helvetica-Light" font-size="27.7" fill="#FEFFFF" transform="matrix(1.00, 0.00, -0.00, -1.00, 402.4, 184.0)">n</text><text xml:space="preserve" font-family="Helvetica-Light" font-size="27.7" fill="#FEFFFF" transform="matrix(1.00, 0.00, -0.00, -1.00, 417.8, 184.0)">o</text><text xml:space="preserve" font-family="Helvetica-Light" font-size="27.7" fill="#FEFFFF" transform="matrix(1.00, 0.00, -0.00, -1.00, 433.3, 184.0)"> </text><text xml:space="preserve" font-family="Helvetica-Light" font-size="27.7" fill="#FEFFFF" transform="matrix(1.00, 0.00, -0.00, -1.00, 79.0, 152.0)">t</text><text xml:space="preserve" font-family="Helvetica-Light" font-size="27.7" fill="#FEFFFF" transform="matrix(1.00, 0.00, -0.00, -1.00, 86.7, 152.0)">e</text><text xml:space="preserve" font-family="Helvetica-Light" font-size="27.7" fill="#FEFFFF" transform="matrix(1.00, 0.00, -0.00, -1.00, 102.1, 152.0)">r</text><text xml:space="preserve" font-family="Helvetica-Light" font-size="27.7" fill="#FEFFFF" transform="matrix(1.00, 0.00, -0.00, -1.00, 111.8, 152.0)">m</text><text xml:space="preserve" font-family="Helvetica-Light" font-size="27.7" fill="#FEFFFF" transform="matrix(1.00, 0.00, -0.00, -1.00, 134.9, 152.0)">i</text><text xml:space="preserve" font-family="Helvetica-Light" font-size="27.7" fill="#FEFFFF" transform="matrix(1.00, 0.00, -0.00, -1.00, 141.1, 152.0)">n</text><text xml:space="preserve" font-family="Helvetica-Light" font-size="27.7" fill="#FEFFFF" transform="matrix(1.00, 0.00, -0.00, -1.00, 156.5, 152.0)">a</text><text xml:space="preserve" font-family="Helvetica-Light" font-size="27.7" fill="#FEFFFF" transform="matrix(1.00, 0.00, -0.00, -1.00, 171.9, 152.0)">l</text><text xml:space="preserve" font-family="Helvetica-Light" font-size="27.7" fill="#FEFFFF" transform="matrix(1.00, 0.00, -0.00, -1.00, 178.1, 152.0)"> </text><text xml:space="preserve" font-family="Helvetica-Light" font-size="27.7" fill="#FEFFFF" transform="matrix(1.00, 0.00, -0.00, -1.00, 79.0, 88.0)">A</text><text xml:space="preserve" font-family="Helvetica-Light" font-size="27.7" fill="#FEFFFF" transform="matrix(1.00, 0.00, -0.00, -1.00, 97.5, 88.0)">b</text><text xml:space="preserve" font-family="Helvetica-Light" font-size="27.7" fill="#FEFFFF" transform="matrix(1.00, 0.00, -0.00, -1.00, 114.4, 88.0)">r</text><text xml:space="preserve" font-family="Helvetica-Light" font-size="27.7" fill="#FEFFFF" transform="matrix(1.00, 0.00, -0.00, -1.00, 123.7, 88.0)">i</text><text xml:space="preserve" font-family="Helvetica-Light" font-size="27.7" fill="#FEFFFF" transform="matrix(1.00, 0.00, -0.00, -1.00, 129.8, 88.0)">r</text><text xml:space="preserve" font-family="Helvetica-Light" font-size="27.7" fill="#FEFFFF" transform="matrix(1.00, 0.00, -0.00, -1.00, 139.0, 88.0)"> </text><text xml:space="preserve" font-family="Helvetica-Light" font-size="27.7" fill="#FEFFFF" transform="matrix(1.00, 0.00, -0.00, -1.00, 146.7, 88.0)">o</text><text xml:space="preserve" font-family="Helvetica-Light" font-size="27.7" fill="#FEFFFF" transform="matrix(1.00, 0.00, -0.00, -1.00, 162.2, 88.0)"> </text><text xml:space="preserve" font-family="Helvetica-BoldOblique" font-style="italic" font-weight="bold" font-size="27.7" fill="#FEFFFF" transform="matrix(1.00, 0.00, -0.00, -1.00, 169.9, 88.0)">x</text><text xml:space="preserve" font-family="Helvetica-BoldOblique" font-style="italic" font-weight="bold" font-size="27.7" fill="#FEFFFF" transform="matrix(1.00, 0.00, -0.00, -1.00, 185.3, 88.0)">w</text><text xml:space="preserve" font-family="Helvetica-BoldOblique" font-style="italic" font-weight="bold" font-size="27.7" fill="#FEFFFF" transform="matrix(1.00, 0.00, -0.00, -1.00, 206.9, 88.0)">o</text><text xml:space="preserve" font-family="Helvetica-BoldOblique" font-style="italic" font-weight="bold" font-size="27.7" fill="#FEFFFF" transform="matrix(1.00, 0.00, -0.00, -1.00, 223.8, 88.0)">r</text><text xml:space="preserve" font-family="Helvetica-BoldOblique" font-style="italic" font-weight="bold" font-size="27.7" fill="#FEFFFF" transform="matrix(1.00, 0.00, -0.00, -1.00, 234.6, 88.0)">k</text><text xml:space="preserve" font-family="Helvetica-BoldOblique" font-style="italic" font-weight="bold" font-size="27.7" fill="#FEFFFF" transform="matrix(1.00, 0.00, -0.00, -1.00, 250.0, 88.0)">s</text><text xml:space="preserve" font-family="Helvetica-BoldOblique" font-style="italic" font-weight="bold" font-size="27.7" fill="#FEFFFF" transform="matrix(1.00, 0.00, -0.00, -1.00, 265.4, 88.0)">p</text><text xml:space="preserve" font-family="Helvetica-BoldOblique" font-style="italic" font-weight="bold" font-size="27.7" fill="#FEFFFF" transform="matrix(1.00, 0.00, -0.00, -1.00, 282.4, 88.0)">a</text><text xml:space="preserve" font-family="Helvetica-BoldOblique" font-style="italic" font-weight="bold" font-size="27.7" fill="#FEFFFF" transform="matrix(1.00, 0.00, -0.00, -1.00, 297.8, 88.0)">c</text><text xml:space="preserve" font-family="Helvetica-BoldOblique" font-style="italic" font-weight="bold" font-size="27.7" fill="#FEFFFF" transform="matrix(1.00, 0.00, -0.00, -1.00, 313.2, 88.0)">e</text><text xml:space="preserve" font-family="Helvetica-BoldOblique" font-style="italic" font-weight="bold" font-size="27.7" fill="#FEFFFF" transform="matrix(1.00, 0.00, -0.00, -1.00, 328.6, 88.0)">p</text><text xml:space="preserve" font-family="Helvetica-BoldOblique" font-style="italic" font-weight="bold" font-size="27.7" fill="#FEFFFF" transform="matrix(1.00, 0.00, -0.00, -1.00, 345.6, 88.0)">r</text><text xml:space="preserve" font-family="Helvetica-BoldOblique" font-style="italic" font-weight="bold" font-size="27.7" fill="#FEFFFF" transform="matrix(1.00, 0.00, -0.00, -1.00, 356.4, 88.0)">o</text><text xml:space="preserve" font-family="Helvetica-BoldOblique" font-style="italic" font-weight="bold" font-size="27.7" fill="#FEFFFF" transform="matrix(1.00, 0.00, -0.00, -1.00, 373.3, 88.0)">j</text><text xml:space="preserve" font-family="Helvetica-BoldOblique" font-style="italic" font-weight="bold" font-size="27.7" fill="#FEFFFF" transform="matrix(1.00, 0.00, -0.00, -1.00, 381.0, 88.0)">e</text><text xml:space="preserve" font-family="Helvetica-BoldOblique" font-style="italic" font-weight="bold" font-size="27.7" fill="#FEFFFF" transform="matrix(1.00, 0.00, -0.00, -1.00, 396.4, 88.0)">c</text><text xml:space="preserve" font-family="Helvetica-BoldOblique" font-style="italic" font-weight="bold" font-size="27.7" fill="#FEFFFF" transform="matrix(1.00, 0.00, -0.00, -1.00, 411.9, 88.0)">t</text><text xml:space="preserve" font-family="Helvetica-Light" font-size="27.7" fill="#FEFFFF" transform="matrix(1.00, 0.00, -0.00, -1.00, 421.0, 88.0)"> </text><g><clipPath id="clip-5"><path d="M 490.0 573.0 L 988.0 573.0 L 988.0 61.0 L 490.0 61.0 Z M 490.1 572.5 "></path></clipPath><g clip-path="url(#clip-5)"><image xlink:href="../../E09C652D-16AA-4BA7-BEA8-113356965909/assets/0D475386CA9A37DD13A5AD9CC2A2C25C.png" width="960.00" height="480.00" transform="matrix(1.07, 0.00, -0.00, -1.07, 490.0, 572.0)"></image></g></g><image xlink:href="../../E09C652D-16AA-4BA7-BEA8-113356965909/assets/217DBDFAC58D4C399085087ED54B70EB.png" width="2075.00" height="505.00" transform="matrix(0.24, 0.00, -0.00, -0.24, 490.1, 60.5)"></image></g></svg>