<?xml version="1.0" encoding="UTF-8" standalone="no"?><svg xmlns="http://www.w3.org/2000/svg" xmlns:xlink="http://www.w3.org/1999/xlink" clip-rule="evenodd" stroke-miterlimit="4.00" viewBox="0 0 1024 768"><desc>SVG generated by Keynote</desc><defs></defs><g transform="matrix(1.00, 0.00, -0.00, -1.00, 0.0, 768.0)"><path d="M 0.0 768.0 L 1024.0 768.0 L 1024.0 0.0 L 0.0 0.0 Z M 0.0 768.0 " fill="#000000"></path><text xml:space="preserve" font-family="Helvetica-Light" font-size="80.0" fill="#FEFFFF" transform="matrix(1.00, 0.00, -0.00, -1.00, 303.0, 232.0)">C</text><text xml:space="preserve" font-family="Helvetica-Light" font-size="80.0" fill="#FEFFFF" transform="matrix(1.00, 0.00, -0.00, -1.00, 360.8, 232.0)">o</text><text xml:space="preserve" font-family="Helvetica-Light" font-size="80.0" fill="#FEFFFF" transform="matrix(1.00, 0.00, -0.00, -1.00, 405.2, 232.0)">c</text><text xml:space="preserve" font-family="Helvetica-Light" font-size="80.0" fill="#FEFFFF" transform="matrix(1.00, 0.00, -0.00, -1.00, 449.7, 232.0)">o</text><text xml:space="preserve" font-family="Helvetica-Light" font-size="80.0" fill="#FEFFFF" transform="matrix(1.00, 0.00, -0.00, -1.00, 494.2, 232.0)">a</text><text xml:space="preserve" font-family="Helvetica-Light" font-size="80.0" fill="#FEFFFF" transform="matrix(1.00, 0.00, -0.00, -1.00, 538.7, 232.0)">P</text><text xml:space="preserve" font-family="Helvetica-Light" font-size="80.0" fill="#FEFFFF" transform="matrix(1.00, 0.00, -0.00, -1.00, 587.6, 232.0)">o</text><text xml:space="preserve" font-family="Helvetica-Light" font-size="80.0" fill="#FEFFFF" transform="matrix(1.00, 0.00, -0.00, -1.00, 632.0, 232.0)">d</text><text xml:space="preserve" font-family="Helvetica-Light" font-size="80.0" fill="#FEFFFF" transform="matrix(1.00, 0.00, -0.00, -1.00, 680.9, 232.0)">s</text><text xml:space="preserve" font-family="Helvetica-Light" font-size="80.0" fill="#FEFFFF" transform="matrix(1.00, 0.00, -0.00, -1.00, 720.9, 232.0)"> </text><text xml:space="preserve" font-family="Helvetica-Light" font-size="20.0" fill="#FEFFFF" transform="matrix(1.00, 0.00, -0.00, -1.00, 291.0, 195.0)">(</text><text xml:space="preserve" font-family="Helvetica-Light" font-size="20.0" fill="#FEFFFF" transform="matrix(1.00, 0.00, -0.00, -1.00, 297.7, 195.0)">s</text><text xml:space="preserve" font-family="Helvetica-Light" font-size="20.0" fill="#FEFFFF" transform="matrix(1.00, 0.00, -0.00, -1.00, 307.7, 195.0)">e</text><text xml:space="preserve" font-family="Helvetica-Light" font-size="20.0" fill="#FEFFFF" transform="matrix(1.00, 0.00, -0.00, -1.00, 318.8, 195.0)"> </text><text xml:space="preserve" font-family="Helvetica-Light" font-size="20.0" fill="#FEFFFF" transform="matrix(1.00, 0.00, -0.00, -1.00, 324.3, 195.0)">d</text><text xml:space="preserve" font-family="Helvetica-Light" font-size="20.0" fill="#FEFFFF" transform="matrix(1.00, 0.00, -0.00, -1.00, 336.6, 195.0)">e</text><text xml:space="preserve" font-family="Helvetica-Light" font-size="20.0" fill="#FEFFFF" transform="matrix(1.00, 0.00, -0.00, -1.00, 347.7, 195.0)">r</text><text xml:space="preserve" font-family="Helvetica-Light" font-size="20.0" fill="#FEFFFF" transform="matrix(1.00, 0.00, -0.00, -1.00, 354.3, 195.0)"> </text><text xml:space="preserve" font-family="Helvetica-Light" font-size="20.0" fill="#FEFFFF" transform="matrix(1.00, 0.00, -0.00, -1.00, 359.9, 195.0)">t</text><text xml:space="preserve" font-family="Helvetica-Light" font-size="20.0" fill="#FEFFFF" transform="matrix(1.00, 0.00, -0.00, -1.00, 365.5, 195.0)">e</text><text xml:space="preserve" font-family="Helvetica-Light" font-size="20.0" fill="#FEFFFF" transform="matrix(1.00, 0.00, -0.00, -1.00, 376.6, 195.0)">m</text><text xml:space="preserve" font-family="Helvetica-Light" font-size="20.0" fill="#FEFFFF" transform="matrix(1.00, 0.00, -0.00, -1.00, 393.2, 195.0)">p</text><text xml:space="preserve" font-family="Helvetica-Light" font-size="20.0" fill="#FEFFFF" transform="matrix(1.00, 0.00, -0.00, -1.00, 405.5, 195.0)">o</text><text xml:space="preserve" font-family="Helvetica-Light" font-size="20.0" fill="#FEFFFF" transform="matrix(1.00, 0.00, -0.00, -1.00, 416.6, 195.0)"> </text><text xml:space="preserve" font-family="Helvetica-Light" font-size="20.0" fill="#FEFFFF" transform="matrix(1.00, 0.00, -0.00, -1.00, 422.1, 195.0)">d</text><text xml:space="preserve" font-family="Helvetica-Light" font-size="20.0" fill="#FEFFFF" transform="matrix(1.00, 0.00, -0.00, -1.00, 434.4, 195.0)">e</text><text xml:space="preserve" font-family="Helvetica-Light" font-size="20.0" fill="#FEFFFF" transform="matrix(1.00, 0.00, -0.00, -1.00, 445.5, 195.0)">l</text><text xml:space="preserve" font-family="Helvetica-Light" font-size="20.0" fill="#FEFFFF" transform="matrix(1.00, 0.00, -0.00, -1.00, 449.9, 195.0)">e</text><text xml:space="preserve" font-family="Helvetica-Light" font-size="20.0" fill="#FEFFFF" transform="matrix(1.00, 0.00, -0.00, -1.00, 461.0, 195.0)">g</text><text xml:space="preserve" font-family="Helvetica-Light" font-size="20.0" fill="#FEFFFF" transform="matrix(1.00, 0.00, -0.00, -1.00, 473.3, 195.0)">a</text><text xml:space="preserve" font-family="Helvetica-Light" font-size="20.0" fill="#FEFFFF" transform="matrix(1.00, 0.00, -0.00, -1.00, 484.4, 195.0)">t</text><text xml:space="preserve" font-family="Helvetica-Light" font-size="20.0" fill="#FEFFFF" transform="matrix(1.00, 0.00, -0.00, -1.00, 489.9, 195.0)">e</text><text xml:space="preserve" font-family="Helvetica-Light" font-size="20.0" fill="#FEFFFF" transform="matrix(1.00, 0.00, -0.00, -1.00, 501.1, 195.0)">s</text><text xml:space="preserve" font-family="Helvetica-Light" font-size="20.0" fill="#FEFFFF" transform="matrix(1.00, 0.00, -0.00, -1.00, 511.1, 195.0)"> </text><text xml:space="preserve" font-family="Helvetica-Light" font-size="20.0" fill="#FEFFFF" transform="matrix(1.00, 0.00, -0.00, -1.00, 516.6, 195.0)">e</text><text xml:space="preserve" font-family="Helvetica-Light" font-size="20.0" fill="#FEFFFF" transform="matrix(1.00, 0.00, -0.00, -1.00, 527.7, 195.0)"> </text><text xml:space="preserve" font-family="Helvetica-Light" font-size="20.0" fill="#FEFFFF" transform="matrix(1.00, 0.00, -0.00, -1.00, 533.3, 195.0)">p</text><text xml:space="preserve" font-family="Helvetica-Light" font-size="20.0" fill="#FEFFFF" transform="matrix(1.00, 0.00, -0.00, -1.00, 545.5, 195.0)">r</text><text xml:space="preserve" font-family="Helvetica-Light" font-size="20.0" fill="#FEFFFF" transform="matrix(1.00, 0.00, -0.00, -1.00, 551.8, 195.0)">o</text><text xml:space="preserve" font-family="Helvetica-Light" font-size="20.0" fill="#FEFFFF" transform="matrix(1.00, 0.00, -0.00, -1.00, 562.9, 195.0)">t</text><text xml:space="preserve" font-family="Helvetica-Light" font-size="20.0" fill="#FEFFFF" transform="matrix(1.00, 0.00, -0.00, -1.00, 568.5, 195.0)">o</text><text xml:space="preserve" font-family="Helvetica-Light" font-size="20.0" fill="#FEFFFF" transform="matrix(1.00, 0.00, -0.00, -1.00, 579.6, 195.0)">c</text><text xml:space="preserve" font-family="Helvetica-Light" font-size="20.0" fill="#FEFFFF" transform="matrix(1.00, 0.00, -0.00, -1.00, 590.7, 195.0)">o</text><text xml:space="preserve" font-family="Helvetica-Light" font-size="20.0" fill="#FEFFFF" transform="matrix(1.00, 0.00, -0.00, -1.00, 601.9, 195.0)">l</text><text xml:space="preserve" font-family="Helvetica-Light" font-size="20.0" fill="#FEFFFF" transform="matrix(1.00, 0.00, -0.00, -1.00, 606.3, 195.0)">s</text><text xml:space="preserve" font-family="Helvetica-Light" font-size="20.0" fill="#FEFFFF" transform="matrix(1.00, 0.00, -0.00, -1.00, 616.3, 195.0)"> </text><text xml:space="preserve" font-family="Helvetica-Light" font-size="20.0" fill="#FEFFFF" transform="matrix(1.00, 0.00, -0.00, -1.00, 621.9, 195.0)">n</text><text xml:space="preserve" font-family="Helvetica-Light" font-size="20.0" fill="#FEFFFF" transform="matrix(1.00, 0.00, -0.00, -1.00, 633.0, 195.0)">a</text><text xml:space="preserve" font-family="Helvetica-Light" font-size="20.0" fill="#FEFFFF" transform="matrix(1.00, 0.00, -0.00, -1.00, 644.1, 195.0)"> </text><text xml:space="preserve" font-family="Helvetica-Light" font-size="20.0" fill="#FEFFFF" transform="matrix(1.00, 0.00, -0.00, -1.00, 649.7, 195.0)">v</text><text xml:space="preserve" font-family="Helvetica-Light" font-size="20.0" fill="#FEFFFF" transform="matrix(1.00, 0.00, -0.00, -1.00, 659.7, 195.0)">i</text><text xml:space="preserve" font-family="Helvetica-Light" font-size="20.0" fill="#FEFFFF" transform="matrix(1.00, 0.00, -0.00, -1.00, 664.1, 195.0)">d</text><text xml:space="preserve" font-family="Helvetica-Light" font-size="20.0" fill="#FEFFFF" transform="matrix(1.00, 0.00, -0.00, -1.00, 676.3, 195.0)">a</text><text xml:space="preserve" font-family="Helvetica-Light" font-size="20.0" fill="#FEFFFF" transform="matrix(1.00, 0.00, -0.00, -1.00, 687.4, 195.0)"> </text><text xml:space="preserve" font-family="Helvetica-Light" font-size="20.0" fill="#FEFFFF" transform="matrix(1.00, 0.00, -0.00, -1.00, 693.0, 195.0)">r</text><text xml:space="preserve" font-family="Helvetica-Light" font-size="20.0" fill="#FEFFFF" transform="matrix(1.00, 0.00, -0.00, -1.00, 699.3, 195.0)">e</text><text xml:space="preserve" font-family="Helvetica-Light" font-size="20.0" fill="#FEFFFF" transform="matrix(1.00, 0.00, -0.00, -1.00, 710.4, 195.0)">a</text><text xml:space="preserve" font-family="Helvetica-Light" font-size="20.0" fill="#FEFFFF" transform="matrix(1.00, 0.00, -0.00, -1.00, 721.5, 195.0)">l</text><text xml:space="preserve" font-family="Helvetica-Light" font-size="20.0" fill="#FEFFFF" transform="matrix(1.00, 0.00, -0.00, -1.00, 726.0, 195.0)">)</text><text xml:space="preserve" font-family="Helvetica-Bold" font-weight="bold" font-size="25.0" fill="#FEFFFF" transform="matrix(1.00, 0.00, -0.00, -1.00, 678.7, 145.7)">P</text><text xml:space="preserve" font-family="Helvetica-Bold" font-weight="bold" font-size="25.0" fill="#FEFFFF" transform="matrix(1.00, 0.00, -0.00, -1.00, 695.4, 145.7)">o</text><text xml:space="preserve" font-family="Helvetica-Bold" font-weight="bold" font-size="25.0" fill="#FEFFFF" transform="matrix(1.00, 0.00, -0.00, -1.00, 710.7, 145.7)">r</text><text xml:space="preserve" font-family="Helvetica-Bold" font-weight="bold" font-size="25.0" fill="#FEFFFF" transform="matrix(1.00, 0.00, -0.00, -1.00, 720.4, 145.7)"> </text><text xml:space="preserve" font-family="Helvetica-Bold" font-weight="bold" font-size="25.0" fill="#FEFFFF" transform="matrix(1.00, 0.00, -0.00, -1.00, 727.3, 145.7)">H</text><text xml:space="preserve" font-family="Helvetica-Bold" font-weight="bold" font-size="25.0" fill="#FEFFFF" transform="matrix(1.00, 0.00, -0.00, -1.00, 745.4, 145.7)">u</text><text xml:space="preserve" font-family="Helvetica-Bold" font-weight="bold" font-size="25.0" fill="#FEFFFF" transform="matrix(1.00, 0.00, -0.00, -1.00, 760.7, 145.7)">m</text><text xml:space="preserve" font-family="Helvetica-Bold" font-weight="bold" font-size="25.0" fill="#FEFFFF" transform="matrix(1.00, 0.00, -0.00, -1.00, 782.9, 145.7)">b</text><text xml:space="preserve" font-family="Helvetica-Bold" font-weight="bold" font-size="25.0" fill="#FEFFFF" transform="matrix(1.00, 0.00, -0.00, -1.00, 798.2, 145.7)">e</text><text xml:space="preserve" font-family="Helvetica-Bold" font-weight="bold" font-size="25.0" fill="#FEFFFF" transform="matrix(1.00, 0.00, -0.00, -1.00, 812.1, 145.7)">r</text><text xml:space="preserve" font-family="Helvetica-Bold" font-weight="bold" font-size="25.0" fill="#FEFFFF" transform="matrix(1.00, 0.00, -0.00, -1.00, 821.8, 145.7)">t</text><text xml:space="preserve" font-family="Helvetica-Bold" font-weight="bold" font-size="25.0" fill="#FEFFFF" transform="matrix(1.00, 0.00, -0.00, -1.00, 830.1, 145.7)">o</text><text xml:space="preserve" font-family="Helvetica-Bold" font-weight="bold" font-size="25.0" fill="#FEFFFF" transform="matrix(1.00, 0.00, -0.00, -1.00, 845.4, 145.7)"> </text><text xml:space="preserve" font-family="Helvetica-Bold" font-weight="bold" font-size="25.0" fill="#FEFFFF" transform="matrix(1.00, 0.00, -0.00, -1.00, 852.3, 145.7)">V</text><text xml:space="preserve" font-family="Helvetica-Bold" font-weight="bold" font-size="25.0" fill="#FEFFFF" transform="matrix(1.00, 0.00, -0.00, -1.00, 868.6, 145.7)">i</text><text xml:space="preserve" font-family="Helvetica-Bold" font-weight="bold" font-size="25.0" fill="#FEFFFF" transform="matrix(1.00, 0.00, -0.00, -1.00, 875.5, 145.7)">e</text><text xml:space="preserve" font-family="Helvetica-Bold" font-weight="bold" font-size="25.0" fill="#FEFFFF" transform="matrix(1.00, 0.00, -0.00, -1.00, 889.4, 145.7)">i</text><text xml:space="preserve" font-family="Helvetica-Bold" font-weight="bold" font-size="25.0" fill="#FEFFFF" transform="matrix(1.00, 0.00, -0.00, -1.00, 896.4, 145.7)">r</text><text xml:space="preserve" font-family="Helvetica-Bold" font-weight="bold" font-size="25.0" fill="#FEFFFF" transform="matrix(1.00, 0.00, -0.00, -1.00, 906.1, 145.7)">a</text><text xml:space="preserve" font-family="Helvetica-Bold" font-weight="bold" font-size="25.0" fill="#FEFFFF" transform="matrix(1.00, 0.00, -0.00, -1.00, 920.0, 145.7)">โจ</text><text xml:space="preserve" font-family="Helvetica-Bold" font-weight="bold" font-size="25.0" fill="#FEFFFF" transform="matrix(1.00, 0.00, -0.00, -1.00, 759.5, 115.7)">B</text><text xml:space="preserve" font-family="Helvetica-Bold" font-weight="bold" font-size="25.0" fill="#FEFFFF" transform="matrix(1.00, 0.00, -0.00, -1.00, 777.5, 115.7)">C</text><text xml:space="preserve" font-family="Helvetica-Bold" font-weight="bold" font-size="25.0" fill="#FEFFFF" transform="matrix(1.00, 0.00, -0.00, -1.00, 795.6, 115.7)">C</text><text xml:space="preserve" font-family="Helvetica-Bold" font-weight="bold" font-size="25.0" fill="#FEFFFF" transform="matrix(1.00, 0.00, -0.00, -1.00, 813.6, 115.7)"> </text><text xml:space="preserve" font-family="Helvetica-Bold" font-weight="bold" font-size="25.0" fill="#FEFFFF" transform="matrix(1.00, 0.00, -0.00, -1.00, 820.6, 115.7)">-</text><text xml:space="preserve" font-family="Helvetica-Bold" font-weight="bold" font-size="25.0" fill="#FEFFFF" transform="matrix(1.00, 0.00, -0.00, -1.00, 828.9, 115.7)"> </text><text xml:space="preserve" font-family="Helvetica-Bold" font-weight="bold" font-size="25.0" fill="#FEFFFF" transform="matrix(1.00, 0.00, -0.00, -1.00, 835.8, 115.7)">5</text><text xml:space="preserve" font-family="Helvetica-Bold" font-weight="bold" font-size="25.0" fill="#FEFFFF" transform="matrix(1.00, 0.00, -0.00, -1.00, 849.8, 115.7)">ยบ</text><text xml:space="preserve" font-family="Helvetica-Bold" font-weight="bold" font-size="25.0" fill="#FEFFFF" transform="matrix(1.00, 0.00, -0.00, -1.00, 858.9, 115.7)"> </text><text xml:space="preserve" font-family="Helvetica-Bold" font-weight="bold" font-size="25.0" fill="#FEFFFF" transform="matrix(1.00, 0.00, -0.00, -1.00, 865.8, 115.7)">S</text><text xml:space="preserve" font-family="Helvetica-Bold" font-weight="bold" font-size="25.0" fill="#FEFFFF" transform="matrix(1.00, 0.00, -0.00, -1.00, 882.5, 115.7)">E</text><text xml:space="preserve" font-family="Helvetica-Bold" font-weight="bold" font-size="25.0" fill="#FEFFFF" transform="matrix(1.00, 0.00, -0.00, -1.00, 899.2, 115.7)">M</text><image xlink:href="CF9A369EB14C2C7AEF78AFF2E342314B.png" width="344.00" height="344.00" transform="matrix(1.00, 0.00, -0.00, -1.00, 340.0, 681.0)"></image><image xlink:href="55702D236088E35BF3E44E638033C665.png" width="1432.00" height="505.00" transform="matrix(0.24, 0.00, -0.00, -0.24, 340.2, 337.2)"></image></g></svg>